<!--?xml version="1.0" encoding="UTF-8"?-->
<svg xmlns="http://www.w3.org/2000/svg" viewBox="0 0 619.63 514.19" role="img" aria-label="Xero Statement Reconciler illustration">
  <defs>
    <style>
      :root{
        --primary:#1E3A8A;
        --secondary:#475569;
        --accent:#0F766E;
        --bg:#F8FAFC;
        --surface:#FFFFFF;
        --line:#CBD5E1;
        --muted:#E2E8F0;
        --ink:#0F172A;
      }
      .bg-blob{fill:var(--primary);opacity:.10}
      .shadow{fill:#0B1220;opacity:.10}
      .surface{fill:var(--surface)}
      .muted{fill:var(--bg)}
      .muted2{fill:var(--muted)}
      .line{fill:var(--line)}
      .primary{fill:var(--primary)}
      .secondary{fill:var(--secondary)}
      .accent{fill:var(--accent)}
      .ink{fill:var(--ink)}
      .stroke{fill:none;stroke:var(--line);stroke-width:3;stroke-linecap:round;stroke-linejoin:round}
      .stroke2{fill:none;stroke:var(--secondary);stroke-width:3;stroke-linecap:round;stroke-linejoin:round;opacity:.45}
      .strokeA{fill:none;stroke:var(--accent);stroke-width:6;stroke-linecap:round;stroke-linejoin:round}
      .tiny{opacity:.7}
    </style>

    <filter id="softShadow" x="-30%" y="-30%" width="160%" height="160%">
      <feGaussianBlur in="SourceAlpha" stdDeviation="8" result="blur"></feGaussianBlur>
      <feOffset dx="0" dy="8" result="off"></feOffset>
      <feColorMatrix in="off" type="matrix" values="0 0 0 0 0.03
                0 0 0 0 0.06
                0 0 0 0 0.12
                0 0 0 .25 0" result="col"></feColorMatrix>
      <feMerge>
        <feMergeNode in="col"></feMergeNode>
        <feMergeNode in="SourceGraphic"></feMergeNode>
      </feMerge>
    </filter>
  </defs>

  <!-- Background blob -->
  <path class="bg-blob" d="M95,345c-30-84,10-190,86-236C273,56,402,52,476,110c68,54,83,155,44,231-41,81-135,132-231,144-88,11-169-42-194-140Z"></path>

  <!-- Base ground -->
  <ellipse class="shadow" cx="311" cy="455" rx="230" ry="28"></ellipse>

  <!-- Left card: Supplier Statement -->
  <g filter="url(#softShadow)">
    <rect x="80" y="150" width="210" height="260" rx="18" class="surface"></rect>
    <rect x="80" y="150" width="210" height="54" rx="18" class="muted2"></rect>
    <rect x="98" y="168" width="70" height="18" rx="9" class="primary" opacity=".15"></rect>
    <circle cx="262" cy="177" r="8" class="secondary" opacity=".25"></circle>
    <circle cx="238" cy="177" r="8" class="secondary" opacity=".18"></circle>

    <!-- Statement title -->
    <rect x="98" y="220" width="140" height="14" rx="7" class="primary" opacity=".25"></rect>
    <rect x="98" y="246" width="170" height="10" rx="5" class="line"></rect>
    <rect x="98" y="266" width="150" height="10" rx="5" class="line"></rect>

    <!-- Table -->
    <rect x="98" y="296" width="174" height="88" rx="10" class="muted"></rect>
    <rect x="110" y="312" width="86" height="10" rx="5" class="line"></rect>
    <rect x="206" y="312" width="52" height="10" rx="5" class="line"></rect>
    <rect x="110" y="336" width="70" height="10" rx="5" class="line"></rect>
    <rect x="206" y="336" width="52" height="10" rx="5" class="line"></rect>
    <rect x="110" y="360" width="94" height="10" rx="5" class="line"></rect>
    <rect x="206" y="360" width="52" height="10" rx="5" class="line"></rect>
  </g>

  <!-- Right card: Xero / Ledger -->
  <g filter="url(#softShadow)">
    <rect x="340" y="120" width="240" height="300" rx="18" class="surface"></rect>
    <rect x="340" y="120" width="240" height="60" rx="18" class="muted2"></rect>

    <!-- Header chip -->
    <rect x="360" y="140" width="92" height="20" rx="10" class="accent" opacity=".18"></rect>
    <rect x="456" y="140" width="74" height="20" rx="10" class="primary" opacity=".12"></rect>

    <!-- Xero logo -->
    <g transform="translate(536 128) scale(0.16)">
      <path d="M128.00285,256 C198.693118,256 256,198.688775 256,128 C256,57.2998444 198.698818,0 128.00285,0 C57.3068822,0 0,57.2998444 0,128 C0,198.688775 57.3068822,256 128.00285,256" fill="#13B5EA"></path>
      <path d="M62.3672889,127.967763 L84.1671111,106.065541 C84.8896,105.337363 85.2935111,104.358874 85.2935111,103.323496 C85.2935111,101.161719 83.5413333,99.4095407 81.3852444,99.4095407 C80.3328,99.4095407 79.3486222,99.8191407 78.6090667,100.575763 L56.8206222,122.381274 L34.9468444,100.535941 C34.2072889,99.807763 33.2288,99.4095407 32.1877333,99.4095407 C30.0259556,99.4095407 28.2794667,101.161719 28.2794667,103.317807 C28.2794667,104.370252 28.7004444,105.365807 29.4513778,106.105363 L51.2512,127.93363 L29.4627556,149.778963 C28.7004444,150.541274 28.2794667,151.531141 28.2794667,152.583585 C28.2794667,154.745363 30.0316444,156.497541 32.1877333,156.497541 C33.2288,156.497541 34.2072889,156.099319 34.9468444,155.359763 L56.7921778,133.503052 L78.5521778,155.27443 C79.3258667,156.070874 80.3157333,156.497541 81.3852444,156.497541 C83.5356444,156.497541 85.2878222,154.745363 85.2878222,152.583585 C85.2878222,151.542519 84.8896,150.56403 84.1500444,149.824474 L62.3616,127.945007 L62.3672889,127.967763 Z M191.965867,127.962074 C191.965867,131.887407 195.151644,135.073185 199.076978,135.073185 C202.979556,135.073185 206.165333,131.887407 206.165333,127.962074 C206.165333,124.036741 202.979556,120.850963 199.071289,120.850963 C195.163022,120.850963 191.982933,124.036741 191.982933,127.962074 L191.965867,127.962074 Z M178.511644,127.962074 C178.511644,116.612741 187.727644,107.368296 199.071289,107.368296 C210.392178,107.368296 219.625244,116.612741 219.625244,127.962074 C219.625244,139.311407 210.397867,148.555852 199.071289,148.555852 C187.733333,148.555852 178.511644,139.322785 178.511644,127.962074 L178.511644,127.962074 Z M170.422044,127.962074 C170.422044,143.777185 183.278933,156.65683 199.071289,156.65683 C214.863644,156.65683 227.720533,143.788563 227.720533,127.967763 C227.720533,112.152652 214.863644,99.2730074 199.071289,99.2730074 C183.273244,99.2730074 170.422044,112.146963 170.422044,127.967763 L170.422044,127.962074 Z M168.391111,99.7622519 L167.196444,99.7622519 C163.584,99.7622519 160.1024,100.90003 157.195378,103.147141 C156.797156,101.406341 155.227022,100.075141 153.361067,100.075141 C151.216356,100.075141 149.492622,101.810252 149.492622,103.966341 L149.504,152.293452 C149.504,154.438163 151.267556,156.184652 153.400889,156.184652 C155.551289,156.184652 157.303467,154.438163 157.309156,152.282074 L157.309156,122.563319 C157.309156,112.664652 158.219378,108.659674 166.684444,107.601541 C167.480889,107.50483 168.322844,107.521896 168.334222,107.521896 C170.643911,107.436563 172.293689,105.837985 172.293689,103.681896 C172.293689,101.520119 170.530133,99.7679407 168.368356,99.7679407 L168.391111,99.7622519 Z M93.3774222,123.245985 C93.3774222,123.132207 93.3888,123.01843 93.3944889,122.91603 C95.6586667,113.927585 103.7824,107.288652 113.447822,107.288652 C123.232711,107.288652 131.424711,114.081185 133.586489,123.228919 L93.3717333,123.228919 L93.3774222,123.245985 Z M141.579378,122.50643 C139.895467,114.524919 135.532089,107.96563 128.893156,103.755852 C119.176533,97.5777185 106.353778,97.9190519 96.9784889,104.609185 C89.3212444,110.053452 84.9009778,118.97363 84.9009778,128.161185 C84.9009778,130.465185 85.1854222,132.791941 85.7543111,135.084563 C88.6442667,146.462341 98.4177778,155.086696 110.068622,156.514607 C113.527467,156.935585 116.895289,156.742163 120.365511,155.831941 C123.369244,155.092385 126.264889,153.886341 128.932978,152.168296 C131.703467,150.387674 134.018844,148.032474 136.271644,145.216474 C136.305778,145.159585 136.351289,145.119763 136.3968,145.062874 C137.955556,143.128652 137.665422,140.363852 135.958756,139.055407 C134.513778,137.946074 132.090311,137.496652 130.190222,139.942874 C129.780622,140.534519 129.319822,141.137541 128.824889,141.734874 C127.305956,143.413096 125.422933,145.03443 123.170133,146.297363 C120.291556,147.833363 117.026133,148.703763 113.555911,148.726519 C102.189511,148.595674 96.1137778,140.648296 93.9463111,134.982163 C93.5708444,133.918341 93.2807111,132.820385 93.0759111,131.682607 L93.0190222,131.085274 L133.808356,131.085274 C139.394844,130.960119 142.398578,127.006341 141.568,122.495052 L141.579378,122.50643 Z" fill="#FFFFFF"></path>
    </g>

    <!-- Ledger rows -->
    <rect x="360" y="200" width="200" height="44" rx="12" class="muted"></rect>
    <circle cx="382" cy="222" r="10" class="primary" opacity=".20"></circle>
    <rect x="402" y="212" width="92" height="10" rx="5" class="line"></rect>
    <rect x="504" y="212" width="46" height="10" rx="5" class="line"></rect>
    <rect x="402" y="228" width="66" height="8" rx="4" class="line" opacity=".8"></rect>

    <rect x="360" y="252" width="200" height="44" rx="12" class="muted"></rect>
    <circle cx="382" cy="274" r="10" class="primary" opacity=".20"></circle>
    <rect x="402" y="264" width="104" height="10" rx="5" class="line"></rect>
    <rect x="514" y="264" width="36" height="10" rx="5" class="line"></rect>
    <rect x="402" y="280" width="78" height="8" rx="4" class="line" opacity=".8"></rect>

    <rect x="360" y="304" width="200" height="44" rx="12" class="muted"></rect>
    <circle cx="382" cy="326" r="10" class="primary" opacity=".20"></circle>
    <rect x="402" y="316" width="86" height="10" rx="5" class="line"></rect>
    <rect x="504" y="316" width="46" height="10" rx="5" class="line"></rect>
    <rect x="402" y="332" width="58" height="8" rx="4" class="line" opacity=".8"></rect>

    <!-- Status pill -->
    <rect x="360" y="368" width="110" height="26" rx="13" class="accent" opacity=".16"></rect>
    <rect x="372" y="376" width="62" height="10" rx="5" class="accent" opacity=".55"></rect>
  </g>

  <!-- Reconcile arrows -->
  <g>
    <!-- from statement to ledger -->
    <path class="strokeA" d="M288 280 C 310 258, 328 250, 352 248"></path>
    <path class="strokeA" d="M344 234 L 360 249 L 342 262"></path>

    <!-- back (match/confirm loop) -->
    <path class="strokeA tiny" d="M340 320 C 318 342, 300 350, 276 352"></path>
    <path class="strokeA tiny" d="M284 338 L 268 353 L 286 366"></path>
  </g>

  <!-- Central reconcile badge -->
  <g filter="url(#softShadow)">
    <circle cx="312" cy="305" r="46" class="surface"></circle>
    <circle cx="312" cy="305" r="46" class="primary" opacity=".07"></circle>
    <path class="strokeA" d="M295 306 L 307 318 L 331 292"></path>
    <rect x="286" y="344" width="52" height="10" rx="5" class="secondary" opacity=".25"></rect>
  </g>

  <!-- Small floating chips (decor) -->
  <g class="tiny">
    <rect x="120" y="110" width="78" height="28" rx="14" class="surface" filter="url(#softShadow)"></rect>
    <circle cx="136" cy="124" r="7" class="accent" opacity=".35"></circle>
    <rect x="148" y="119" width="40" height="10" rx="5" class="line"></rect>

    <rect x="430" y="70" width="98" height="30" rx="15" class="surface" filter="url(#softShadow)"></rect>
    <rect x="444" y="81" width="58" height="10" rx="5" class="line"></rect>
    <circle cx="515" cy="85" r="6" class="primary" opacity=".25"></circle>
  </g>

  <!-- Minimal “text lines” under everything for balance -->
  <g class="tiny">
    <path class="stroke2" d="M150 456 H 470"></path>
    <path class="stroke2" d="M190 478 H 430"></path>
  </g>
</svg>
